<svg id="visual" viewBox="0 0 540 960" width="540" height="960" xmlns="http://www.w3.org/2000/svg" xmlns:xlink="http://www.w3.org/1999/xlink" version="1.1"><rect x="0" y="0" width="540" height="960" fill="#fff"></rect><defs><linearGradient id="grad1_0" x1="0%" y1="0%" x2="100%" y2="100%"><stop offset="30%" stop-color="#ffffff" stop-opacity="1"></stop><stop offset="70%" stop-color="#ffffff" stop-opacity="1"></stop></linearGradient></defs><defs><linearGradient id="grad2_0" x1="0%" y1="0%" x2="100%" y2="100%"><stop offset="30%" stop-color="#ffffff" stop-opacity="1"></stop><stop offset="70%" stop-color="#ffffff" stop-opacity="1"></stop></linearGradient></defs><g transform="translate(540, 0)"><path d="M0 297C-26.2 276 -52.3 255 -76 234C-99.7 213 -120.9 192 -118.1 162.6C-115.4 133.3 -88.6 95.5 -120.5 87.6C-152.5 79.6 -243.3 101.4 -282.5 91.8C-321.7 82.1 -309.3 41.1 -297 0L0 0Z" fill="#3f50d1"></path></g><g transform="translate(0, 960)"><path d="M0 -297C30.2 -280.5 60.3 -264 76.3 -234.9C92.3 -205.8 94.1 -164.2 105.2 -144.8C116.3 -125.4 136.6 -128.1 172.3 -125.2C208 -122.3 259.1 -113.6 282.5 -91.8C305.8 -70 301.4 -35 297 0L0 0Z" fill="#3f50d1"></path></g></svg>