<svg id="visual" viewBox="0 0 960 540" width="960" height="540" xmlns="http://www.w3.org/2000/svg" xmlns:xlink="http://www.w3.org/1999/xlink" version="1.1"><rect x="0" y="0" width="960" height="540" fill="#fff"></rect><defs><linearGradient id="grad1_0" x1="43.8%" y1="0%" x2="100%" y2="100%"><stop offset="14.444444444444446%" stop-color="#ffffff" stop-opacity="1"></stop><stop offset="85.55555555555554%" stop-color="#ffffff" stop-opacity="1"></stop></linearGradient></defs><defs><linearGradient id="grad2_0" x1="0%" y1="0%" x2="56.3%" y2="100%"><stop offset="14.444444444444446%" stop-color="#ffffff" stop-opacity="1"></stop><stop offset="85.55555555555554%" stop-color="#ffffff" stop-opacity="1"></stop></linearGradient></defs><g transform="translate(960, 0)"><path d="M0 297C-29.1 270.3 -58.2 243.5 -69.2 213C-80.2 182.5 -73 148.3 -108.2 148.9C-143.3 149.4 -220.7 184.8 -240.3 174.6C-259.9 164.4 -221.8 108.7 -221.6 72C-221.4 35.3 -259.2 17.7 -297 0L0 0Z" fill="#3f50d1"></path></g><g transform="translate(0, 540)"><path d="M0 -297C33.2 -299 66.5 -301 91.8 -282.5C117.1 -263.9 134.5 -224.9 137 -188.5C139.4 -152.1 126.9 -118.5 140.8 -102.3C154.7 -86.1 195 -87.4 225.4 -73.2C255.8 -59.1 276.4 -29.6 297 0L0 0Z" fill="#3f50d1"></path></g></svg>