<svg id="visual" viewBox="0 0 960 540" width="960" height="540" xmlns="http://www.w3.org/2000/svg" xmlns:xlink="http://www.w3.org/1999/xlink" version="1.1"><rect width="960" height="540" fill="#eef2f4"></rect><g><g transform="translate(799 370)"><path d="M0 -64.4L55.7 -32.2L55.7 32.2L0 64.4L-55.7 32.2L-55.7 -32.2Z" fill="#787ee8"></path></g><g transform="translate(660 360)"><path d="M0 -36L31.2 -18L31.2 18L0 36L-31.2 18L-31.2 -18Z" fill="#787ee8"></path></g><g transform="translate(463 139)"><path d="M0 -38L32.9 -19L32.9 19L0 38L-32.9 19L-32.9 -19Z" fill="#787ee8"></path></g><g transform="translate(540 477)"><path d="M0 -59L51.1 -29.5L51.1 29.5L0 59L-51.1 29.5L-51.1 -29.5Z" fill="#787ee8"></path></g><g transform="translate(324 148)"><path d="M0 -33L28.6 -16.5L28.6 16.5L0 33L-28.6 16.5L-28.6 -16.5Z" fill="#787ee8"></path></g><g transform="translate(246 366)"><path d="M0 -16L13.9 -8L13.9 8L0 16L-13.9 8L-13.9 -8Z" fill="#787ee8"></path></g><g transform="translate(74 110)"><path d="M0 -41L35.5 -20.5L35.5 20.5L0 41L-35.5 20.5L-35.5 -20.5Z" fill="#787ee8"></path></g><g transform="translate(174 479)"><path d="M0 -37L32 -18.5L32 18.5L0 37L-32 18.5L-32 -18.5Z" fill="#787ee8"></path></g><g transform="translate(84 277)"><path d="M0 -42L36.4 -21L36.4 21L0 42L-36.4 21L-36.4 -21Z" fill="#787ee8"></path></g><g transform="translate(16 518)"><path d="M0 -30L26 -15L26 15L0 30L-26 15L-26 -15Z" fill="#787ee8"></path></g><g transform="translate(824 77)"><path d="M0 -38L32.9 -19L32.9 19L0 38L-32.9 19L-32.9 -19Z" fill="#787ee8"></path></g><g transform="translate(317 481)"><path d="M0 -33L28.6 -16.5L28.6 16.5L0 33L-28.6 16.5L-28.6 -16.5Z" fill="#787ee8"></path></g><g transform="translate(581 15)"><path d="M0 -35L30.3 -17.5L30.3 17.5L0 35L-30.3 17.5L-30.3 -17.5Z" fill="#787ee8"></path></g><g transform="translate(551 238)"><path d="M0 -59L51.1 -29.5L51.1 29.5L0 59L-51.1 29.5L-51.1 -29.5Z" fill="#787ee8"></path></g><g transform="translate(863 258)"><path d="M0 -53L45.9 -26.5L45.9 26.5L0 53L-45.9 26.5L-45.9 -26.5Z" fill="#787ee8"></path></g><g transform="translate(939 138)"><path d="M0 -24L20.8 -12L20.8 12L0 24L-20.8 12L-20.8 -12Z" fill="#787ee8"></path></g><g transform="translate(395 27)"><path d="M0 -37L32 -18.5L32 18.5L0 37L-32 18.5L-32 -18.5Z" fill="#787ee8"></path></g><g transform="translate(676 488)"><path d="M0 -23L19.9 -11.5L19.9 11.5L0 23L-19.9 11.5L-19.9 -11.5Z" fill="#787ee8"></path></g><g transform="translate(921 533)"><path d="M0 -18L15.6 -9L15.6 9L0 18L-15.6 9L-15.6 -9Z" fill="#787ee8"></path></g><g transform="translate(2 388)"><path d="M0 -54L46.8 -27L46.8 27L0 54L-46.8 27L-46.8 -27Z" fill="#787ee8"></path></g><g transform="translate(398 343)"><path d="M0 -61L52.8 -30.5L52.8 30.5L0 61L-52.8 30.5L-52.8 -30.5Z" fill="#787ee8"></path></g><g transform="translate(639 136)"><path d="M0 -24L20.8 -12L20.8 12L0 24L-20.8 12L-20.8 -12Z" fill="#787ee8"></path></g><g transform="translate(946 397)"><path d="M0 -48L41.6 -24L41.6 24L0 48L-41.6 24L-41.6 -24Z" fill="#787ee8"></path></g><g transform="translate(232 37)"><path d="M0 -57L49.4 -28.5L49.4 28.5L0 57L-49.4 28.5L-49.4 -28.5Z" fill="#787ee8"></path></g><g transform="translate(202 210)"><path d="M0 -31L26.8 -15.5L26.8 15.5L0 31L-26.8 15.5L-26.8 -15.5Z" fill="#787ee8"></path></g><g transform="translate(713 2)"><path d="M0 -55L47.6 -27.5L47.6 27.5L0 55L-47.6 27.5L-47.6 -27.5Z" fill="#787ee8"></path></g><g transform="translate(735 227)"><path d="M0 -21L18.2 -10.5L18.2 10.5L0 21L-18.2 10.5L-18.2 -10.5Z" fill="#787ee8"></path></g><g transform="translate(944 6)"><path d="M0 -52L45 -26L45 26L0 52L-45 26L-45 -26Z" fill="#787ee8"></path></g></g></svg>