<svg id="visual" viewBox="0 0 540 960" width="540" height="960" xmlns="http://www.w3.org/2000/svg" xmlns:xlink="http://www.w3.org/1999/xlink" version="1.1"><rect x="0" y="0" width="540" height="960" fill="#ffffff"></rect><path d="M0 621L36 621L36 576L72 576L72 742L108 742L108 509L144 509L144 695L180 695L180 479L216 479L216 514L252 514L252 795L288 795L288 550L324 550L324 489L360 489L360 522L396 522L396 618L432 618L432 777L468 777L468 716L504 716L504 511L540 511L540 510L540 961L540 961L504 961L504 961L468 961L468 961L432 961L432 961L396 961L396 961L360 961L360 961L324 961L324 961L288 961L288 961L252 961L252 961L216 961L216 961L180 961L180 961L144 961L144 961L108 961L108 961L72 961L72 961L36 961L36 961L0 961Z" fill="#3f50d1"></path><path d="M0 824L36 824L36 662L72 662L72 645L108 645L108 617L144 617L144 750L180 750L180 786L216 786L216 624L252 624L252 777L288 777L288 842L324 842L324 732L360 732L360 839L396 839L396 688L432 688L432 823L468 823L468 840L504 840L504 860L540 860L540 881L540 961L540 961L504 961L504 961L468 961L468 961L432 961L432 961L396 961L396 961L360 961L360 961L324 961L324 961L288 961L288 961L252 961L252 961L216 961L216 961L180 961L180 961L144 961L144 961L108 961L108 961L72 961L72 961L36 961L36 961L0 961Z" fill="#4957d5"></path><path d="M0 728L36 728L36 816L72 816L72 717L108 717L108 710L144 710L144 802L180 802L180 779L216 779L216 819L252 819L252 701L288 701L288 898L324 898L324 896L360 896L360 763L396 763L396 822L432 822L432 852L468 852L468 728L504 728L504 746L540 746L540 825L540 961L540 961L504 961L504 961L468 961L468 961L432 961L432 961L396 961L396 961L360 961L360 961L324 961L324 961L288 961L288 961L252 961L252 961L216 961L216 961L180 961L180 961L144 961L144 961L108 961L108 961L72 961L72 961L36 961L36 961L0 961Z" fill="#535fd9"></path><path d="M0 817L36 817L36 799L72 799L72 770L108 770L108 955L144 955L144 787L180 787L180 918L216 918L216 776L252 776L252 877L288 877L288 910L324 910L324 784L360 784L360 945L396 945L396 954L432 954L432 886L468 886L468 951L504 951L504 866L540 866L540 868L540 961L540 961L504 961L504 961L468 961L468 961L432 961L432 961L396 961L396 961L360 961L360 961L324 961L324 961L288 961L288 961L252 961L252 961L216 961L216 961L180 961L180 961L144 961L144 961L108 961L108 961L72 961L72 961L36 961L36 961L0 961Z" fill="#5c67dd"></path></svg>