<svg id="visual" viewBox="0 0 960 540" width="960" height="540" xmlns="http://www.w3.org/2000/svg" xmlns:xlink="http://www.w3.org/1999/xlink" version="1.1"><rect x="0" y="0" width="960" height="540" fill="#ffffff"></rect><path d="M0 349L64 349L64 323L128 323L128 417L192 417L192 286L256 286L256 390L320 390L320 269L384 269L384 289L448 289L448 447L512 447L512 309L576 309L576 274L640 274L640 293L704 293L704 347L768 347L768 437L832 437L832 402L896 402L896 287L960 287L960 286L960 541L960 541L896 541L896 541L832 541L832 541L768 541L768 541L704 541L704 541L640 541L640 541L576 541L576 541L512 541L512 541L448 541L448 541L384 541L384 541L320 541L320 541L256 541L256 541L192 541L192 541L128 541L128 541L64 541L64 541L0 541Z" fill="#3f50d1"></path><path d="M0 463L64 463L64 372L128 372L128 362L192 362L192 347L256 347L256 421L320 421L320 442L384 442L384 351L448 351L448 436L512 436L512 473L576 473L576 411L640 411L640 471L704 471L704 387L768 387L768 463L832 463L832 472L896 472L896 483L960 483L960 495L960 541L960 541L896 541L896 541L832 541L832 541L768 541L768 541L704 541L704 541L640 541L640 541L576 541L576 541L512 541L512 541L448 541L448 541L384 541L384 541L320 541L320 541L256 541L256 541L192 541L192 541L128 541L128 541L64 541L64 541L0 541Z" fill="#4957d5"></path><path d="M0 409L64 409L64 459L128 459L128 403L192 403L192 399L256 399L256 451L320 451L320 437L384 437L384 460L448 460L448 394L512 394L512 505L576 505L576 504L640 504L640 429L704 429L704 462L768 462L768 479L832 479L832 409L896 409L896 419L960 419L960 463L960 541L960 541L896 541L896 541L832 541L832 541L768 541L768 541L704 541L704 541L640 541L640 541L576 541L576 541L512 541L512 541L448 541L448 541L384 541L384 541L320 541L320 541L256 541L256 541L192 541L192 541L128 541L128 541L64 541L64 541L0 541Z" fill="#535fd9"></path><path d="M0 459L64 459L64 449L128 449L128 433L192 433L192 537L256 537L256 442L320 442L320 516L384 516L384 436L448 436L448 493L512 493L512 512L576 512L576 441L640 441L640 531L704 531L704 536L768 536L768 498L832 498L832 535L896 535L896 487L960 487L960 488L960 541L960 541L896 541L896 541L832 541L832 541L768 541L768 541L704 541L704 541L640 541L640 541L576 541L576 541L512 541L512 541L448 541L448 541L384 541L384 541L320 541L320 541L256 541L256 541L192 541L192 541L128 541L128 541L64 541L64 541L0 541Z" fill="#5c67dd"></path></svg>